<?xml version="1.0" encoding="utf-8"?><svg version="1.1" id="Layer_1" xmlns="http://www.w3.org/2000/svg" xmlns:xlink="http://www.w3.org/1999/xlink" x="0px" y="0px" viewBox="0 0 122.88 122.88" style="enable-background:new 0 0 122.88 122.88" xml:space="preserve"><g><path d="M61.44,0c16.97,0,32.33,6.88,43.44,18c11.12,11.12,18,26.48,18,43.44c0,16.97-6.88,32.33-18,43.44 c-11.12,11.12-26.48,18-43.44,18S29.11,116,18,104.88C6.88,93.77,0,78.41,0,61.44C0,44.47,6.88,29.11,18,18S44.47,0,61.44,0 L61.44,0z M34.18,87.57l0.06,0h29.5v-8.65H28C29.65,82.08,31.74,84.98,34.18,87.57L34.18,87.57z M63.73,93.26h-22.9 c6.55,4.46,14.48,7.07,22.9,7.07V93.26L63.73,93.26z M25.59,73.23h38.15v-8.65H23.82C24.07,67.58,24.67,70.47,25.59,73.23 L25.59,73.23z M23.78,58.89h39.96v-8.63H25.37C24.52,53.03,23.98,55.92,23.78,58.89L23.78,58.89z M27.66,44.53h36.07V35.9H33.46 C31.17,38.51,29.21,41.41,27.66,44.53L27.66,44.53z M33.7,26.56c1.29-1.05,2.62-2.02,3.97-2.89c6.99-4.52,14.92-6.78,23.77-6.78 l0,0c6.14,0,11.84,1.09,17.1,3.26c0.86,0.36,1.7,0.74,2.53,1.15c21.02,10.42,30.45,36.01,21.66,57.23 c-0.36,0.86-0.74,1.7-1.15,2.53c-7.47,15.08-23.18,24.91-40.13,24.91v0l0,0c-6.14,0-11.84-1.09-17.1-3.26 c-0.86-0.36-1.7-0.74-2.53-1.15C26.74,94.1,16.89,78.39,16.89,61.44c0-5.89,1.01-11.65,3.26-17.1c0.36-0.86,0.74-1.7,1.15-2.53 C24.22,35.94,28.6,30.71,33.7,26.56L33.7,26.56z M39.61,30.22h24.13V22.1C54.78,22.1,46.38,25.13,39.61,30.22L39.61,30.22z M99.69,23.19C89.9,13.41,76.38,7.35,61.44,7.35c-14.94,0-28.46,6.05-38.25,15.84C13.41,32.98,7.35,46.5,7.35,61.44 s6.05,28.46,15.84,38.25c9.79,9.79,23.31,15.84,38.25,15.84c14.94,0,28.46-6.05,38.25-15.84c9.79-9.79,15.84-23.31,15.84-38.25 S109.47,32.98,99.69,23.19L99.69,23.19z"/></g></svg>