<svg xmlns="http://www.w3.org/2000/svg" height="48" width="48"><path d="M22 44Q14.55 44 9.275 38.725Q4 33.45 4 26Q4 22.3 5.425 19Q6.85 15.7 9.325 13.2Q11.8 10.7 15.075 9.25Q18.35 7.8 22.05 7.8H23.6L19.9 4.1L22 2L29.3 9.3L22 16.6L19.9 14.5L23.6 10.8H22.05Q15.9 10.8 11.45 15.3Q7 19.8 7 26Q7 32.15 11.425 36.575Q15.85 41 22 41Q24.35 41 26.4 40.325Q28.45 39.65 30.45 38.3L32.7 40.55Q30.2 42.25 27.575 43.125Q24.95 44 22 44ZM34.2 37.8 22.4 26 34.2 14.2 46 26ZM34.2 33.55 41.75 26 34.2 18.45 26.65 26ZM34.2 26Z"/></svg>